<svg id="Capa_1" data-name="Capa 1" xmlns="http://www.w3.org/2000/svg" viewBox="0 0 77.17 71"><defs><style>.cls-1,.cls-2{fill:none;stroke-linecap:round;stroke-linejoin:round;stroke-width:.41px}.cls-1{stroke:#292e31}.cls-2{stroke:#fff}</style></defs><path id="_Trazado_" data-name="&lt;Trazado&gt;" class="cls-1" d="M16.05 57.66h140.53"/><path id="_Trazado_2" data-name="&lt;Trazado&gt;" class="cls-1" d="M66.65 47.64h87.77"/><path id="_Trazado_3" data-name="&lt;Trazado&gt;" class="cls-1" d="M-68.32 20.35h83.89"/><circle id="_Trazado_4" data-name="&lt;Trazado&gt;" class="cls-1" cx="14.95" cy="57.66" r="1.1"/><path id="_Trazado_5" data-name="&lt;Trazado&gt;" class="cls-2" d="M56.87 67.49h5.56"/><path id="_Trazado_6" data-name="&lt;Trazado&gt;" class="cls-2" d="M55.85.98h5.56"/><path id="_Trazado_7" data-name="&lt;Trazado&gt;" class="cls-1" d="M16.87 46.54h7.91a3.53 3.53 0 1 0 0-7 3.41 3.41 0 0 0-1.42.3 6.48 6.48 0 0 0-12.74-1.38 4.21 4.21 0 1 0-1.55 8.13h3.46"/><path id="_Trazado_8" data-name="&lt;Trazado&gt;" class="cls-1" d="M13.72 46.54h1.96"/><g id="_Grupo_" data-name="&lt;Grupo&gt;"><path id="_Trazado_9" data-name="&lt;Trazado&gt;" class="cls-1" d="M58.84 26.51a5.18 5.18 0 0 1 1.26-.15 5.37 5.37 0 0 1 5.19 4 3.45 3.45 0 0 1 1.29-.25 3.5 3.5 0 1 1 0 7h-2.87"/><path id="_Trazado_10" data-name="&lt;Trazado&gt;" class="cls-1" d="M55.53 28.89a5.42 5.42 0 0 1 2.15-2"/><path id="_Trazado_11" data-name="&lt;Trazado&gt;" class="cls-1" d="M51.74 31.89a2.89 2.89 0 0 1 3-.39 5.12 5.12 0 0 1 .34-1.66"/><path id="_Trazado_12" data-name="&lt;Trazado&gt;" class="cls-1" d="M60.12 37.1h-6.56a2.93 2.93 0 0 1-2.93-2.92"/><path id="_Trazado_13" data-name="&lt;Trazado&gt;" class="cls-1" d="M62.73 37.1H61.1"/></g><circle id="_Trazado_14" data-name="&lt;Trazado&gt;" class="cls-1" cx="65.55" cy="47.64" r="1.1"/><circle id="_Trazado_15" data-name="&lt;Trazado&gt;" class="cls-1" cx="16.67" cy="20.35" r="1.1"/><g id="_Grupo_2" data-name="&lt;Grupo&gt;"><path id="_Trazado_16" data-name="&lt;Trazado&gt;" class="cls-1" d="M14.38 65.07l-1.32 1.32"/><path id="_Trazado_17" data-name="&lt;Trazado&gt;" class="cls-1" d="M14.38 66.39l-1.32-1.32"/></g><g id="_Grupo_3" data-name="&lt;Grupo&gt;"><path id="_Trazado_18" data-name="&lt;Trazado&gt;" class="cls-1" d="M10 6.47L8.68 7.79"/><path id="_Trazado_19" data-name="&lt;Trazado&gt;" class="cls-1" d="M10 7.79L8.68 6.47"/></g></svg>